<?xml version="1.0" standalone="no"?>
<!DOCTYPE svg PUBLIC "-//W3C//DTD SVG 20010904//EN"
 "http://www.w3.org/TR/2001/REC-SVG-20010904/DTD/svg10.dtd">
<svg version="1.0" xmlns="http://www.w3.org/2000/svg"
 width="1067.000000pt" height="1067.000000pt" viewBox="0 0 1067.000000 1067.000000"
 preserveAspectRatio="xMidYMid meet">
<metadata>
Created by potrace 1.11, written by Peter Selinger 2001-2013
</metadata>
<g transform="translate(0.000000,1067.000000) scale(0.100000,-0.100000)"
fill="#000000" stroke="none">
<path d="M4965 10663 c-734 -59 -1343 -222 -1961 -522 -556 -271 -1006 -592
-1445 -1030 -438 -439 -759 -889 -1030 -1445 -269 -554 -428 -1107 -505 -1756
-22 -184 -30 -762 -15 -969 116 -1514 847 -2880 2041 -3816 307 -240 693 -476
1040 -635 604 -277 1230 -436 1900 -481 216 -14 676 -6 885 16 1079 113 2053
525 2895 1224 148 122 529 503 651 651 699 842 1111 1816 1224 2895 22 209 30
669 16 885 -80 1185 -516 2248 -1297 3160 -199 232 -496 513 -769 725 -143
112 -444 313 -615 411 -659 378 -1408 610 -2187 679 -151 13 -699 19 -828 8z"/>
</g>
</svg>
