<?xml version="1.0" standalone="no"?>
<!DOCTYPE svg PUBLIC "-//W3C//DTD SVG 20010904//EN"
 "http://www.w3.org/TR/2001/REC-SVG-20010904/DTD/svg10.dtd">
<svg version="1.0" xmlns="http://www.w3.org/2000/svg"
 width="350.000000pt" height="350.000000pt" viewBox="0 0 350.000000 350.000000"
 preserveAspectRatio="xMidYMid meet">
<metadata>
Created by potrace 1.11, written by Peter Selinger 2001-2013
</metadata>
<g transform="translate(0.000000,350.000000) scale(0.100000,-0.100000)"
fill="#000000" stroke="none">
<path d="M1202 3105 c-18 -22 -19 -42 -19 -294 0 -237 2 -275 18 -310 9 -22
28 -45 41 -52 31 -17 1842 -20 1866 -3 25 19 4 71 -66 158 -36 44 -68 83 -71
86 -3 3 -32 37 -63 75 -31 39 -67 82 -80 97 -13 14 -30 35 -38 45 -96 119
-157 183 -189 201 l-39 22 -670 0 -671 0 -19 -25z"/>
<path d="M985 3105 c-36 -17 -61 -37 -287 -227 -277 -233 -282 -237 -305 -276
l-23 -37 0 -673 0 -673 23 -23 c22 -22 24 -22 302 -21 256 0 283 2 312 19 17
11 37 30 44 43 10 19 13 213 14 934 0 501 -3 919 -7 930 -9 22 -31 24 -73 4z"/>
<path d="M2501 2323 c-20 -7 -46 -24 -58 -38 l-23 -26 0 -919 c0 -505 3 -925
6 -934 3 -9 15 -16 25 -16 26 0 87 32 120 61 14 13 45 40 69 59 24 19 48 40
54 45 6 6 38 32 71 59 33 27 65 54 70 60 6 6 33 29 60 51 28 21 52 42 55 45 3
3 31 26 62 53 31 26 67 64 79 84 l23 37 1 665 c1 575 -1 670 -14 694 -9 15
-22 28 -31 28 -8 1 -131 2 -274 3 -183 1 -269 -2 -295 -11z"/>
<path d="M392 1074 c-35 -25 2 -82 232 -359 140 -168 241 -280 268 -297 l42
-28 673 0 672 0 21 22 c12 13 20 36 21 57 4 215 -2 508 -11 535 -6 18 -22 44
-36 57 l-25 24 -921 0 c-669 0 -925 -3 -936 -11z"/>
</g>
</svg>
